HIERARCHY
ROOT Hips
{
	OFFSET 0.00000 0.00000 0.00000
	CHANNELS 6 Xposition Yposition Zposition Yrotation Zrotation Xrotation 
	JOINT Lumbar
	{
		OFFSET 0 0 0
		CHANNELS 3 Zrotation Xrotation Yrotation
		JOINT Neck
		{
			OFFSET 0.00 0.2701 0.00
			CHANNELS 3 Zrotation Xrotation Yrotation
			End Site
			{
				OFFSET 0.00 0.1379 0.00
			}
		}
		JOINT RightShoulder
		{
			OFFSET 0.0119 0.2289 0.1181
			CHANNELS 3 Zrotation Xrotation Yrotation
			JOINT RightElbow
			{
				OFFSET 0.00 -0.1475 0.00
				CHANNELS 2 Zrotation Yrotation
				JOINT RightWrist
				{
					OFFSET 0.00 -0.1605 0.00
					CHANNELS 2 Zrotation Xrotation
					End Site
					{
						OFFSET 0.0040 -0.1068 0.0006
					}
				}
			}
		}
		JOINT LeftShoulder
		{
			OFFSET 0.0119 0.2289 -0.1181
			CHANNELS 3 Zrotation Xrotation Yrotation
			JOINT LeftElbow
			{
				OFFSET 0.00 -0.1475 0.00
				CHANNELS 2 Zrotation Yrotation
				JOINT LeftWrist
				{
					OFFSET 0.00 -0.1605 0.00
					CHANNELS 2 Zrotation Xrotation
					End Site
					{
						OFFSET 0.0040 -0.1068 -0.0006
					}
				}
			}
		}
	}
	JOINT RightHip
	{
		OFFSET 0.0316 -0.0424 0.0458
		CHANNELS 3 Zrotation Xrotation Yrotation
		JOINT RightKnee
		{
			OFFSET 0.00 -0.2438 0.00
			CHANNELS 1 Zrotation
			JOINT RightAnkle
			{
				OFFSET 0.00 -0.2449 0.00
				CHANNELS 3 Zrotation Xrotation Yrotation
				End Site
				{
					OFFSET 0.1237 -0.0542 0.0051
				}
			}
		}
	}
	JOINT LeftHip
	{
		OFFSET 0.0316 -0.0424 -0.0458
		CHANNELS 3 Zrotation Xrotation Yrotation
		JOINT LeftKnee
		{
			OFFSET 0.00 -0.2438 0.00
			CHANNELS 1 Zrotation
			JOINT LeftAnkle
			{
				OFFSET 0.00 -0.2449 0.00
				CHANNELS 3 Zrotation Xrotation Yrotation
				End Site
				{
					OFFSET 0.1237 -0.0542 -0.0051
				}
			}
		}
	}
}
MOTION
Frames: 14
Frame Time: 0.02
0 0.57926 -0 179.0991 0 2.49593 5.63197 0.91811 -0.30749 -17.61296 3.13518 2.65071 10.79672 -14.41794 -3.14121 11.61065 82.35576 0.46241 1.15865 10.01972 8.3246 16.03573 7.94572 -77.91565 -10.16712 3.17894 2.38677 4.29232 21.75508 -19.82952 10.95039 -8.32036 -11.00797 0.74994 -4.13919 -9.61302 -14.07628 8.0554 6.4148 10.43832
-3e-05 0.57933 0.00048 179.77956 0 2.54014 5.69758 0.95648 -0.56001 -17.54965 3.13824 2.47635 10.7375 -14.53794 -3.1922 11.42954 82.38168 0.45109 1.25787 10.14503 7.86496 19.01872 7.52737 -77.39883 -9.99699 2.51103 2.32048 4.1701 21.12154 -19.76011 10.98519 -8.34767 -11.04979 0.82831 -4.23113 -10.14565 -14.05206 7.96629 6.35929 10.36367
-6e-05 0.5794 0.00095 180.45634 0 2.58409 5.76298 0.99467 -0.81002 -17.48661 3.14056 2.30332 10.67764 -14.65685 -3.24513 11.24917 82.40708 0.43942 1.3563 10.26932 7.40856 21.95852 7.11437 -76.88765 -9.822 1.8467 2.25435 4.04872 20.49202 -19.69101 11.01985 -8.37513 -11.09186 0.90622 -4.32246 -10.67545 -14.02819 7.878 6.30416 10.28927
-9e-05 0.57946 0.00142 181.1254 0 2.62729 5.82791 1.03327 -1.05258 -17.42173 3.1384 2.13282 10.61262 -14.77082 -3.30932 11.06957 82.43061 0.4262 1.45196 10.38836 6.96212 24.74676 6.71894 -76.39458 -9.62186 1.18818 2.18803 3.92927 19.87222 -19.62186 11.05395 -8.40327 -11.13539 0.98305 -4.41229 -11.19843 -14.00495 7.79135 6.24944 10.21467
-0.0001 0.57954 0.00193 181.83582 0 2.67432 5.89498 1.07067 -1.33472 -17.36376 3.15808 1.94765 10.57242 -14.90882 -3.31753 10.88535 82.46402 0.42113 1.5616 10.53223 6.46468 28.32821 6.23079 -75.80628 -9.55008 0.49653 2.12246 3.79931 19.20074 -19.55224 11.0906 -8.42756 -11.17127 1.06561 -4.51011 -11.75673 -13.97771 7.69506 6.19185 10.14059
-0.00015 0.5796 0.00235 182.45771 0 2.71331 5.95769 1.10992 -1.53276 -17.29317 3.13284 1.79455 10.48147 -14.99731 -3.44165 10.71144 82.47651 0.39887 1.64202 10.62548 6.07439 30.235 5.93895 -75.41951 -9.21021 -0.12276 2.05557 3.69189 18.63939 -19.4842 11.12211 -8.46016 -11.22325 1.13598 -4.5909 -12.24032 -13.95939 7.6199 6.14086 10.06587
-0.0003 0.57962 0.00258 182.84624 0 2.72957 6.00795 1.1609 -1.49685 -17.16965 2.96733 1.72177 10.22967 -14.93423 -3.92122 10.55955 82.42932 0.32647 1.63683 10.56051 5.9905 27.3444 6.20302 -75.60295 -8.06478 -0.56597 1.98153 3.64473 18.37666 -19.41492 11.13791 -8.51642 -11.32335 1.1731 -4.62539 -12.51838 -13.96247 7.5981 6.10367 9.98368
-0.0005 0.57962 0.00273 183.14365 0 2.73787 6.05408 1.21253 -1.37653 -17.0375 2.75915 1.68286 9.93102 -14.82376 -4.5113 10.41939 82.3614 0.2372 1.60286 10.44862 6.01296 22.79251 6.6626 -75.98748 -6.65946 -0.93244 1.90682 3.62073 18.22602 -19.34854 11.14916 -8.58136 -11.43925 1.1978 -4.64251 -12.72082 -13.97517 7.59877 6.074 9.90159
-0.00067 0.57964 0.0029 183.47619 0 2.75016 6.10227 1.25972 -1.2956 -16.91977 2.581 1.63365 9.66589 -14.74468 -5.02915 10.27743 82.30406 0.15718 1.58544 10.369 5.97955 19.10815 7.02466 -76.27148 -5.41392 -1.31889 1.83448 3.58725 18.02717 -19.28396 11.16308 -8.64146 -11.5455 1.22802 -4.66722 -12.95813 -13.98557 7.59202 6.04364 9.82335
-0.00084 0.57965 0.00313 183.83575 0 2.76075 6.14916 1.32471 -1.20938 -16.75402 2.3585 1.5627 9.3457 -14.62437 -5.64207 10.11926 82.24151 0.07016 1.55402 10.23964 5.97713 14.94558 7.42506 -76.59438 -3.9924 -1.76742 1.75304 3.549 17.81613 -19.2048 11.17308 -8.70381 -11.66169 1.25903 -4.69348 -13.19472 -13.98719 7.5724 6.00148 9.72957
-0.00103 0.57966 0.00322 184.11666 0 2.77313 6.19844 1.35237 -1.11531 -16.6909 2.21759 1.54541 9.13344 -14.57821 -6.0804 9.99934 82.18531 -0.00588 1.54411 10.20717 5.9365 11.38871 7.78982 -76.88364 -2.87599 -2.06932 1.6909 3.52663 17.65801 -19.15851 11.19189 -8.76544 -11.7615 1.28511 -4.71205 -13.41303 -14.00941 7.58631 5.98605 9.66709
-0.00126 0.57967 0.00298 184.2088 0 2.79129 6.25012 1.28024 -1.01043 -16.87583 2.3176 1.66544 9.19555 -14.75238 -6.03568 9.96676 82.14809 -0.051 1.60803 10.41777 5.75485 9.87362 8.02782 -77.03344 -2.66243 -1.97774 1.67755 3.53862 17.60978 -19.18636 11.22128 -8.807 -11.80741 1.30333 -4.71637 -13.61506 -14.08595 7.67524 6.03955 9.70081
-0.00151 0.57967 0.0026 184.22365 0 2.81173 6.3057 1.16983 -0.90266 -17.17303 2.50002 1.83895 9.37605 -15.00193 -5.80779 9.97468 82.11875 -0.08369 1.69342 10.7355 5.53291 9.03205 8.21985 -77.14168 -2.76527 -1.74274 1.68428 3.56649 17.61208 -19.24994 11.26239 -8.85059 -11.83719 1.3164 -4.71298 -13.79838 -14.18298 7.79921 6.12031 9.76448
-0.00176 0.57967 0.00227 184.27007 0 2.83188 6.36241 1.07481 -0.80225 -17.44125 2.64155 1.98943 9.52333 -15.21454 -5.64512 9.97473 82.08805 -0.11995 1.76389 11.02612 5.33553 7.90681 8.41983 -77.26756 -2.72564 -1.57814 1.68515 3.58961 17.59762 -19.30787 11.30798 -8.90361 -11.87748 1.33023 -4.71137 -13.97993 -14.27066 7.91529 6.19054 9.80766
